# xmcd
#
# Track frame offsets: 
#        150
#        25787
#        46590
#        74950
#        100322
#        119865
#        141930
#        160425
#        173650
#        187062
#        213842
#        244042
#        266512
#
# Disc length: 3735 seconds
#
# Revision: 9
# Processed by: cddbd v1.5.2PL0 Copyright (c) Steve Scherf et al.
# Submitted via: ExactAudioCopy v1.3
#
DISCID=c30e950d
DTITLE=RADWIMPS - RADWIMPS
DYEAR=2003
DGENRE=
TTITLE0=人生 出会い
TTITLE1=自暴自棄自己中心的(思春期)自己依存症の少年
TTITLE2=心臓
TTITLE3=もしも (「みんな一緒に」 Ver.)
TTITLE4=さみしい僕
TTITLE5=コンドーム
TTITLE6=青い春
TTITLE7=「ぼく」と「僕」
TTITLE8=あいまい
TTITLE9=嫌ん
TTITLE10=「ずっと大好きだよ」「ほんと?…」
TTITLE11=愛へ
TTITLE12=あいラブユー
EXTD=YEAR: 2003
EXTT0=
EXTT1=
EXTT2=
EXTT3=
EXTT4=
EXTT5=
EXTT6=
EXTT7=
EXTT8=
EXTT9=
EXTT10=
EXTT11=
EXTT12=
PLAYORDER=
